<svg xmlns="http://www.w3.org/2000/svg"
  xmlns:xlink="http://www.w3.org/1999/xlink" width="500" zoomAndPan="magnify" viewBox="0 0 375 374.999991" height="500" preserveAspectRatio="xMidYMid meet" version="1.0">
  <g fill="#fff" fill-opacity="1">
    <g transform="translate(43.773945, 228.625289)">
      <g>
        <path d="M 0.4375 -145.304688 L 65.242188 0 L 73.089844 0 L 93.578125 -57.976562 C 94.304688 -60.011719 95.175781 -61.027344 96.046875 -61.027344 C 97.066406 -61.027344 98.082031 -60.15625 98.953125 -58.121094 L 124.964844 0 L 132.808594 0 L 184.25 -145.304688 L 171.460938 -145.304688 L 134.988281 -18.453125 C 134.261719 -16.128906 133.390625 -14.964844 132.375 -14.964844 C 131.503906 -14.964844 130.484375 -15.984375 129.613281 -18.019531 L 104.621094 -74.105469 C 102.875 -78.03125 102.730469 -83.550781 104.183594 -87.621094 L 124.527344 -145.304688 L 111.742188 -145.304688 L 98.519531 -99.390625 C 97.9375 -97.210938 97.066406 -96.191406 96.191406 -96.191406 C 95.320312 -96.191406 94.449219 -97.210938 93.578125 -99.097656 L 72.945312 -145.304688 L 60.15625 -145.304688 L 88.636719 -81.660156 C 90.378906 -77.738281 90.671875 -72.21875 89.507812 -68.003906 L 75.269531 -18.453125 C 74.542969 -16.128906 73.671875 -14.964844 72.652344 -14.964844 C 71.78125 -14.964844 70.765625 -15.984375 69.890625 -18.019531 L 13.222656 -145.304688 Z M 0.4375 -145.304688 "/>
      </g>
    </g>
  </g>
  <g fill="#fff" fill-opacity="1">
    <g transform="translate(185.082478, 292.256456)">
      <g>
        <path d="M 11.625 -145.304688 L 11.625 0 L 57.542969 0 C 96.484375 0 126.269531 -30.515625 126.269531 -72.652344 C 126.269531 -114.792969 96.484375 -145.304688 57.542969 -145.304688 Z M 23.25 -135.425781 C 23.832031 -140.945312 26.300781 -142.398438 30.804688 -142.398438 C 35.308594 -142.398438 44.464844 -142.546875 48.386719 -142.546875 C 94.304688 -142.546875 113.773438 -106.363281 113.773438 -72.652344 C 113.773438 -38.941406 94.304688 -2.035156 48.386719 -2.035156 C 44.464844 -2.035156 35.308594 -2.179688 30.804688 -2.179688 C 25.574219 -2.179688 23.105469 -4.214844 23.105469 -12.058594 C 23.105469 -30.515625 23.25 -125.253906 23.25 -135.425781 Z M 23.25 -135.425781 "/>
      </g>
    </g>
  </g>
</svg>