<svg xmlns="http://www.w3.org/2000/svg"
  xmlns:xlink="http://www.w3.org/1999/xlink" width="500" zoomAndPan="magnify" viewBox="0 0 375 374.999991" height="500" preserveAspectRatio="xMidYMid meet" version="1.0">
  <g fill="#222831" fill-opacity="1">
    <g transform="translate(0.0000045, 238.937576)">
      <g>
        <path d="M 0.59375 -198.246094 L 89.011719 0 L 99.71875 0 L 127.667969 -79.097656 C 128.660156 -81.875 129.851562 -83.261719 131.039062 -83.261719 C 132.425781 -83.261719 133.816406 -82.074219 135.003906 -79.296875 L 170.488281 0 L 181.195312 0 L 251.375 -198.246094 L 233.929688 -198.246094 L 184.167969 -25.175781 C 183.179688 -22.003906 181.988281 -20.417969 180.601562 -20.417969 C 179.410156 -20.417969 178.023438 -21.808594 176.832031 -24.582031 L 142.734375 -101.105469 C 140.355469 -106.457031 140.160156 -113.992188 142.140625 -119.542969 L 169.894531 -198.246094 L 152.449219 -198.246094 L 134.410156 -135.597656 C 133.617188 -132.625 132.425781 -131.238281 131.238281 -131.238281 C 130.046875 -131.238281 128.859375 -132.625 127.667969 -135.203125 L 99.519531 -198.246094 L 82.074219 -198.246094 L 120.929688 -111.414062 C 123.308594 -106.0625 123.703125 -98.527344 122.117188 -92.777344 L 102.691406 -25.175781 C 101.699219 -22.003906 100.511719 -20.417969 99.121094 -20.417969 C 97.933594 -20.417969 96.546875 -21.808594 95.355469 -24.582031 L 18.039062 -198.246094 Z M 0.59375 -198.246094 "/>
      </g>
    </g>
  </g>
  <g fill="#222831" fill-opacity="1">
    <g transform="translate(192.790228, 325.750853)">
      <g>
        <path d="M 15.859375 -198.246094 L 15.859375 0 L 78.503906 0 C 131.632812 0 172.273438 -41.632812 172.273438 -99.121094 C 172.273438 -156.613281 131.632812 -198.246094 78.503906 -198.246094 Z M 31.71875 -184.765625 C 32.511719 -192.296875 35.882812 -194.28125 42.027344 -194.28125 C 48.171875 -194.28125 60.664062 -194.476562 66.015625 -194.476562 C 128.660156 -194.476562 155.226562 -145.113281 155.226562 -99.121094 C 155.226562 -53.128906 128.660156 -2.777344 66.015625 -2.777344 C 60.664062 -2.777344 48.171875 -2.972656 42.027344 -2.972656 C 34.890625 -2.972656 31.519531 -5.75 31.519531 -16.453125 C 31.519531 -41.632812 31.71875 -170.886719 31.71875 -184.765625 Z M 31.71875 -184.765625 "/>
      </g>
    </g>
  </g>
</svg>