<svg xmlns="http://www.w3.org/2000/svg" xmlns:xlink="http://www.w3.org/1999/xlink" width="500" zoomAndPan="magnify" viewBox="0 0 375 374.999991" height="500" preserveAspectRatio="xMidYMid meet" version="1.0"><defs><g/></defs><g fill="#272727" fill-opacity="1"><g transform="translate(63.290313, 195.673688)"><g><path d="M 0.859375 -19.203125 L 2.984375 -19.203125 L 7.859375 -4.5 L 13.203125 -19.203125 L 13.78125 -19.203125 L 19.171875 -4.734375 L 23.984375 -19.203125 L 25.984375 -19.203125 L 19.453125 0.578125 L 19.03125 0.578125 L 13.4375 -14.46875 L 7.96875 0.578125 L 7.390625 0.578125 Z M 0.859375 -19.203125 "/></g></g></g><g fill="#272727" fill-opacity="1"><g transform="translate(97.252432, 195.673688)"><g><path d="M 2.578125 -19.203125 L 4.578125 -19.203125 L 4.578125 0 L 2.578125 0 Z M 2.578125 -19.203125 "/></g></g></g><g fill="#272727" fill-opacity="1"><g transform="translate(111.525869, 195.673688)"><g><path d="M 2.578125 -19.203125 L 4.578125 -19.203125 L 4.578125 -1.859375 L 12.328125 -1.859375 L 12.328125 0 L 2.578125 0 Z M 2.578125 -19.203125 "/></g></g></g><g fill="#272727" fill-opacity="1"><g transform="translate(132.247568, 195.673688)"><g><path d="M 2.578125 -19.203125 L 4.578125 -19.203125 L 4.578125 -1.859375 L 12.328125 -1.859375 L 12.328125 0 L 2.578125 0 Z M 2.578125 -19.203125 "/></g></g></g><g fill="#272727" fill-opacity="1"><g transform="translate(152.969267, 195.673688)"><g/></g></g><g fill="#272727" fill-opacity="1"><g transform="translate(166.382931, 195.673688)"><g><path d="M 2.578125 -19.203125 L 8.859375 -19.203125 C 10.328125 -19.203125 11.679688 -18.960938 12.921875 -18.484375 C 14.160156 -18.003906 15.234375 -17.332031 16.140625 -16.46875 C 17.054688 -15.613281 17.769531 -14.597656 18.28125 -13.421875 C 18.800781 -12.242188 19.0625 -10.96875 19.0625 -9.59375 C 19.0625 -8.21875 18.800781 -6.941406 18.28125 -5.765625 C 17.769531 -4.597656 17.054688 -3.585938 16.140625 -2.734375 C 15.234375 -1.890625 14.160156 -1.222656 12.921875 -0.734375 C 11.679688 -0.242188 10.328125 0 8.859375 0 L 2.578125 0 Z M 8.828125 -1.859375 C 9.992188 -1.859375 11.070312 -2.050781 12.0625 -2.4375 C 13.050781 -2.820312 13.90625 -3.359375 14.625 -4.046875 C 15.34375 -4.734375 15.898438 -5.546875 16.296875 -6.484375 C 16.703125 -7.429688 16.90625 -8.46875 16.90625 -9.59375 C 16.90625 -10.726562 16.703125 -11.765625 16.296875 -12.703125 C 15.898438 -13.648438 15.34375 -14.46875 14.625 -15.15625 C 13.90625 -15.84375 13.050781 -16.378906 12.0625 -16.765625 C 11.070312 -17.148438 9.992188 -17.34375 8.828125 -17.34375 L 4.578125 -17.34375 L 4.578125 -1.859375 Z M 8.828125 -1.859375 "/></g></g></g><g fill="#272727" fill-opacity="1"><g transform="translate(193.982762, 195.673688)"><g><path d="M 2.578125 -19.203125 L 12.46875 -19.203125 L 12.46875 -17.34375 L 4.578125 -17.34375 L 4.578125 -10.890625 L 10.609375 -10.890625 L 10.609375 -9.03125 L 4.578125 -9.03125 L 4.578125 -1.859375 L 12.609375 -1.859375 L 12.609375 0 L 2.578125 0 Z M 2.578125 -19.203125 "/></g></g></g><g fill="#272727" fill-opacity="1"><g transform="translate(215.420922, 195.673688)"><g><path d="M 2.578125 -19.203125 L 4.578125 -19.203125 L 4.578125 -1.859375 L 12.328125 -1.859375 L 12.328125 0 L 2.578125 0 Z M 2.578125 -19.203125 "/></g></g></g><g fill="#272727" fill-opacity="1"><g transform="translate(236.142621, 195.673688)"><g><path d="M 11.03125 0.28125 C 9.71875 0.28125 8.476562 0.0234375 7.3125 -0.484375 C 6.144531 -1.003906 5.125 -1.710938 4.25 -2.609375 C 3.382812 -3.503906 2.695312 -4.546875 2.1875 -5.734375 C 1.6875 -6.929688 1.4375 -8.21875 1.4375 -9.59375 C 1.4375 -10.957031 1.6875 -12.238281 2.1875 -13.4375 C 2.695312 -14.644531 3.382812 -15.695312 4.25 -16.59375 C 5.125 -17.488281 6.144531 -18.191406 7.3125 -18.703125 C 8.476562 -19.222656 9.71875 -19.484375 11.03125 -19.484375 C 12.351562 -19.484375 13.59375 -19.222656 14.75 -18.703125 C 15.914062 -18.191406 16.929688 -17.488281 17.796875 -16.59375 C 18.671875 -15.695312 19.359375 -14.648438 19.859375 -13.453125 C 20.367188 -12.253906 20.625 -10.96875 20.625 -9.59375 C 20.625 -8.238281 20.367188 -6.960938 19.859375 -5.765625 C 19.359375 -4.578125 18.671875 -3.535156 17.796875 -2.640625 C 16.929688 -1.742188 15.914062 -1.03125 14.75 -0.5 C 13.59375 0.0195312 12.351562 0.28125 11.03125 0.28125 Z M 11.03125 -1.6875 C 12.082031 -1.6875 13.066406 -1.882812 13.984375 -2.28125 C 14.898438 -2.6875 15.6875 -3.242188 16.34375 -3.953125 C 17.007812 -4.660156 17.53125 -5.492188 17.90625 -6.453125 C 18.289062 -7.421875 18.484375 -8.46875 18.484375 -9.59375 C 18.484375 -10.726562 18.289062 -11.773438 17.90625 -12.734375 C 17.53125 -13.703125 17.007812 -14.539062 16.34375 -15.25 C 15.6875 -15.957031 14.898438 -16.507812 13.984375 -16.90625 C 13.066406 -17.3125 12.082031 -17.515625 11.03125 -17.515625 C 9.957031 -17.515625 8.96875 -17.3125 8.0625 -16.90625 C 7.15625 -16.507812 6.375 -15.957031 5.71875 -15.25 C 5.0625 -14.539062 4.539062 -13.703125 4.15625 -12.734375 C 3.769531 -11.773438 3.578125 -10.726562 3.578125 -9.59375 C 3.578125 -8.46875 3.769531 -7.421875 4.15625 -6.453125 C 4.539062 -5.492188 5.0625 -4.660156 5.71875 -3.953125 C 6.375 -3.242188 7.15625 -2.6875 8.0625 -2.28125 C 8.96875 -1.882812 9.957031 -1.6875 11.03125 -1.6875 Z M 11.03125 -1.6875 "/></g></g></g><g fill="#272727" fill-opacity="1"><g transform="translate(265.318702, 195.673688)"><g><path d="M 2.578125 -19.203125 L 7.15625 -19.203125 C 8.113281 -19.203125 9 -19.0625 9.8125 -18.78125 C 10.625 -18.507812 11.320312 -18.117188 11.90625 -17.609375 C 12.488281 -17.097656 12.941406 -16.5 13.265625 -15.8125 C 13.585938 -15.125 13.75 -14.367188 13.75 -13.546875 C 13.75 -12.878906 13.644531 -12.253906 13.4375 -11.671875 C 13.226562 -11.085938 12.929688 -10.5625 12.546875 -10.09375 C 12.171875 -9.632812 11.710938 -9.234375 11.171875 -8.890625 C 10.640625 -8.554688 10.054688 -8.304688 9.421875 -8.140625 L 14.90625 0 L 12.5 0 L 7.15625 -7.90625 L 4.578125 -7.90625 L 4.578125 0 L 2.578125 0 Z M 7.15625 -9.765625 C 8.539062 -9.765625 9.648438 -10.109375 10.484375 -10.796875 C 11.328125 -11.484375 11.75 -12.410156 11.75 -13.578125 C 11.75 -14.722656 11.328125 -15.632812 10.484375 -16.3125 C 9.648438 -17 8.539062 -17.34375 7.15625 -17.34375 L 4.578125 -17.34375 L 4.578125 -9.765625 Z M 7.15625 -9.765625 "/></g></g></g><g fill="#272727" fill-opacity="1"><g transform="translate(288.476407, 195.673688)"><g><path d="M 2.578125 -19.765625 L 3.15625 -19.765625 L 11.65625 -7.703125 L 20.0625 -19.765625 L 20.625 -19.765625 L 20.625 0 L 18.625 0 L 18.625 -14.359375 L 11.890625 -4.734375 L 11.3125 -4.734375 L 4.578125 -14.21875 L 4.578125 0 L 2.578125 0 Z M 2.578125 -19.765625 "/></g></g></g></svg>