<svg width="750" height="650" viewBox="0 0 750 650" fill="none" xmlns="http://www.w3.org/2000/svg" stroke="#EEEEEE">
<g clip-path="url(#clip0_1_18)">
<path d="M720.544 24.5L375 623L29.4558 24.5L720.544 24.5Z" stroke-width="5"/>
<path d="M172 272.5L199.5 225.5L218 241.5L266.5 174.5L293.5 202L334.5 162.5L345.5 132.5L367.5 128L406 61L447 122.5L469.5 125L507.5 190.5L521 177L564 290" stroke-width="5"/>
<path d="M193 307L235.5 275H269.5L311 210.5L347.5 244L366.5 231.5L395 261L408.5 256.5L448.5 301.5L480.5 286.5L512.5 313.5L546.5 244" stroke-width="5"/>
<path d="M192 305L218 240.5L228 280" stroke-width="2"/>
<path d="M246.5 274.5L250.5 239L246.5 202.5" stroke-width="2"/>
<path d="M251 239L292.5 202L302.5 221.5" stroke-width="2"/>
<path d="M254 274L293 201.5M323 221.5L334.5 162.5M368 128.5V178M368 178L345 230.509M368 178L403 174M341.5 238.5L345 230.509M345 230.509L403 174M403 174L406 65.5M403 174L432 282.5L435 205L403 174Z" stroke-width="2"/>
<path d="M447.5 122L435 205.5M435 205.5L470.5 129.5M435 205.5L480.5 229M480.5 229L507.5 190L520.5 224M480.5 229L494.5 298.5M520.5 224L534.5 213M520.5 224L504 306" stroke-width="2"/>
<path d="M347 242.5L322.5 297.5M322.5 297.5L268.5 274.5L276 342.5M322.5 297.5L335.437 334M276 342.5L322.5 386M276 342.5L274.25 394M276 342.5L236 274.5M272.5 445.5L274.25 394M322.5 386L313.5 515M322.5 386L336.5 337M322.5 386L359.5 500.5M274.25 394L229 369M274.25 394L293.5 480.5M336.5 337L424.5 386M336.5 337L335.437 334M336.5 337L448 301.5M424.5 386L359.5 500.5M424.5 386L448 301.5M424.5 386L444 445.5M359.5 500.5L409.5 562.5M359.5 500.5V593M335.437 334L395 260M448 301.5L504.5 347.5M444 445.5L417.5 551M444 445.5L508.5 390.5L504.5 347.5M504.5 347.5L511.5 312.5L540.5 334" stroke-width="2"/>
</g>
<defs>
<clipPath id="clip0_1_18">
<rect width="750" height="650" fill="white"/>
</clipPath>
</defs>
</svg>
